<svg xmlns="http://www.w3.org/2000/svg" viewBox="0 0 31.68 31.68"><defs><style>.cls-1{fill:#373d47;}</style></defs><title>Asset 4</title><g id="Layer_2" data-name="Layer 2"><g id="Layer_4" data-name="Layer 4"><path class="cls-1" d="M23.89,16.24a1.2,1.2,0,0,1-1.2,1.2H17v5.65a1.2,1.2,0,1,1-2.4,0V17.44H9A1.2,1.2,0,1,1,9,15h5.65V9.38a1.2,1.2,0,0,1,2.4,0V15h5.65A1.21,1.21,0,0,1,23.89,16.24Z"/><path class="cls-1" d="M15.84,0A15.84,15.84,0,1,0,31.68,15.84,15.86,15.86,0,0,0,15.84,0Zm0,29.58A13.74,13.74,0,1,1,29.58,15.84,13.75,13.75,0,0,1,15.84,29.58Z"/></g></g></svg>