<svg xmlns="http://www.w3.org/2000/svg" viewBox="0 0 24.36 24.36"><defs><style>.cls-1{fill:#373d47;}</style></defs><title>Asset 32</title><g id="Layer_2" data-name="Layer 2"><g id="Layer_24" data-name="Layer 24"><path class="cls-1" d="M8.78,24.36h-.1A1.9,1.9,0,0,1,7,23.05L.1,2.51A1.91,1.91,0,0,1,2.51.1L23.05,7a1.91,1.91,0,0,1,.18,3.54l-.13,0L13.5,13.5l-2.94,9.61,0,.13A1.89,1.89,0,0,1,8.78,24.36Zm.78-1.55h0ZM2.21,2.21,8.77,21.8l2.79-9.12,0-.13a1.91,1.91,0,0,1,.95-.95l.13,0L21.8,8.77Z"/></g></g></svg>