<?xml version="1.0" encoding="UTF-8"?>
<svg width="28px" height="46px" viewBox="0 0 28 46" version="1.1" xmlns="http://www.w3.org/2000/svg" xmlns:xlink="http://www.w3.org/1999/xlink">
    <!-- Generator: Sketch 45 (43475) - http://www.bohemiancoding.com/sketch -->
    <title>arrow</title>
    <desc>Created with Sketch.</desc>
    <defs></defs>
    <g id="Page-1" stroke="none" stroke-width="1" fill="none" fill-rule="evenodd">
        <g id="10.Empty-state" transform="translate(-1323.000000, -616.000000)" fill="#757AD3">
            <g id="try-sample-files" transform="translate(1157.000000, 612.000000)">
                <g id="arrow" transform="translate(177.891578, 28.612764) rotate(-21.000000) translate(-177.891578, -28.612764) translate(158.391578, 8.112764)">
                    <path d="M14.2456075,37.1066125 C10.7124599,36.2912404 7.24314176,35.2291274 3.71374884,34.3974729 C3.93277145,34.9347919 4.15054251,35.4708583 4.36831356,36.0081773 C6.06292278,33.4330543 7.95152346,30.9881905 9.57354233,28.3654729 C10.3169676,27.1630809 8.42336074,26.0608882 7.68118698,27.2595228 C6.06041966,29.8809879 4.17181899,32.3271042 2.47720977,34.9009746 C2.09548465,35.4808782 2.46844886,36.3551175 3.13177448,36.5116789 C6.66116739,37.3420809 10.129234,38.4054464 13.6636331,39.219566 C15.0353404,39.5364464 15.6210695,37.4234929 14.2456075,37.1066125" id="Fill-33" transform="translate(8.676933, 32.997141) rotate(14.000000) translate(-8.676933, -32.997141) "></path>
                    <path d="M4.36539149,34.8951831 C15.5430539,34.6634721 27.372778,30.7920203 34.4165451,21.6137611 C39.4240278,15.0895319 40.5354111,6.60014319 34.1487118,0.633272757 C33.1199313,-0.328640864 31.5667481,1.21818638 32.6005348,2.18385748 C39.0185231,8.17953522 36.406522,16.5386648 30.9960377,22.2487744 C24.123734,29.5044588 14.1087687,32.5016714 4.36539149,32.7033226 C2.957389,32.7321299 2.95363432,34.9239904 4.36539149,34.8951831" id="Fill-35"></path>
                </g>
            </g>
        </g>
    </g>
</svg>