<?xml version="1.0" encoding="UTF-8"?>
<svg width="15px" height="23px" viewBox="0 0 15 23" version="1.1" xmlns="http://www.w3.org/2000/svg" xmlns:xlink="http://www.w3.org/1999/xlink">
    <!-- Generator: Sketch 45.1 (43504) - http://www.bohemiancoding.com/sketch -->
    <title>Fill 1 Copy</title>
    <desc>Created with Sketch.</desc>
    <defs></defs>
    <g id="Page-1" stroke="none" stroke-width="1" fill="none" fill-rule="evenodd">
        <g id="39.Item-view-no-comment-land-on-edit-work-state-by-default" transform="translate(-1063.000000, -464.000000)" fill="#FFFFFF">
            <g id="next-work" transform="translate(1035.000000, 420.000000)">
                <path d="M41.013314,66.4075086 C40.5648065,66.4075086 40.1130011,66.2558075 39.7419931,65.9458097 L28.7139844,56.7266714 C28.262179,56.3490677 28,55.79338 28,55.203065 C28,54.6160478 28.262179,54.0587112 28.7139844,53.6794585 L39.7419931,44.4619692 C40.5829447,43.7595273 41.8344786,43.8700053 42.5385694,44.7126058 C43.2410114,45.5535574 43.1288845,46.8050913 42.2879329,47.5075332 L33.0803371,55.203065 L42.2879329,62.8985967 C43.1288845,63.6026876 43.2410114,64.8542215 42.5385694,65.6951731 C42.1461253,66.1651166 41.5821931,66.4075086 41.013314,66.4075086" id="Fill-1-Copy" transform="translate(35.500000, 55.203754) scale(-1, 1) translate(-35.500000, -55.203754) "></path>
            </g>
        </g>
    </g>
</svg>