<svg xmlns="http://www.w3.org/2000/svg" viewBox="0 0 19.34 31.31"><defs><style>.cls-1{fill:#373d47;}</style></defs><title>Asset 43</title><g id="Layer_2" data-name="Layer 2"><g id="Layer_35" data-name="Layer 35"><path class="cls-1" d="M19,7.32l-7.5-7A1.06,1.06,0,0,0,10.37.09a1,1,0,0,0-.63,1V20.79a4.92,4.92,0,0,0-2.55-.63,7.33,7.33,0,0,0-4.33,1.59c-2.8,2.14-3.7,5.67-2,7.87a4.56,4.56,0,0,0,3.73,1.69A7.35,7.35,0,0,0,9,29.73,7.37,7.37,0,0,0,11.63,26a5.49,5.49,0,0,0,.21-1.77V3.47l5.73,5.38A1.05,1.05,0,1,0,19,7.32ZM9.61,25.4a5.25,5.25,0,0,1-1.92,2.67c-1.84,1.41-4.21,1.53-5.18.27s-.22-3.51,1.62-4.93a5.35,5.35,0,0,1,3.08-1.15h0a2.5,2.5,0,0,1,2.06.88A2.51,2.51,0,0,1,9.61,25.4Z"/></g></g></svg>