<svg xmlns="http://www.w3.org/2000/svg" viewBox="0 0 31.68 31.68"><defs><style>.cls-1{fill:#373d47;}</style></defs><title>Asset 5</title><g id="Layer_2" data-name="Layer 2"><g id="Layer_5" data-name="Layer 5"><path class="cls-1" d="M17.91,23a1.2,1.2,0,0,1-.77-.28l-6.69-5.59a1.2,1.2,0,0,1,0-1.85l6.69-5.59a1.2,1.2,0,0,1,1.54,1.85L13.1,16.24l5.58,4.67A1.2,1.2,0,0,1,17.91,23Z"/><path class="cls-1" d="M15.84,31.68A15.84,15.84,0,1,1,31.68,15.84,15.86,15.86,0,0,1,15.84,31.68Zm0-29.58A13.74,13.74,0,1,0,29.58,15.84,13.76,13.76,0,0,0,15.84,2.1Z"/></g></g></svg>