<svg xmlns="http://www.w3.org/2000/svg" viewBox="0 0 31.68 31.68"><defs><style>.cls-1{fill:#373d47;}</style></defs><title>Asset 2</title><g id="Layer_2" data-name="Layer 2"><g id="Layer_2-2" data-name="Layer 2"><path class="cls-1" d="M14.36,22.51a1.2,1.2,0,0,1-.82-.32L8.83,17.84a1.2,1.2,0,0,1,1.63-1.77l3.78,3.48,6.91-8.34A1.2,1.2,0,0,1,23,12.76l-7.72,9.31a1.2,1.2,0,0,1-.85.43Z"/><path class="cls-1" d="M15.84,31.68A15.84,15.84,0,1,1,31.68,15.84,15.86,15.86,0,0,1,15.84,31.68Zm0-29.58A13.74,13.74,0,1,0,29.58,15.84,13.76,13.76,0,0,0,15.84,2.1Z"/></g></g></svg>