<svg xmlns="http://www.w3.org/2000/svg" viewBox="0 0 29.58 29.58"><defs><style>.cls-1{fill:#373d47;}</style></defs><title>Asset 57</title><g id="Layer_2" data-name="Layer 2"><g id="Layer_50" data-name="Layer 50"><path class="cls-1" d="M14.79,0A14.79,14.79,0,1,0,29.58,14.79,14.79,14.79,0,0,0,14.79,0Zm5.72,18.78a1.21,1.21,0,0,1,0,1.71,1.22,1.22,0,0,1-1.71,0l-4-4-4,4a1.22,1.22,0,0,1-.85.35,1.2,1.2,0,0,1-.85-2.06l4-4-4-4a1.21,1.21,0,0,1,0-1.71,1.2,1.2,0,0,1,1.7,0l4,4,4-4a1.21,1.21,0,0,1,1.71,1.71l-4,4Z"/></g></g></svg>