<svg xmlns="http://www.w3.org/2000/svg" viewBox="0 0 31.68 31.68"><defs><style>.cls-1{fill:#373d47;}</style></defs><title>Asset 3</title><g id="Layer_2" data-name="Layer 2"><g id="Layer_3" data-name="Layer 3"><path class="cls-1" d="M21.56,19.83a1.21,1.21,0,0,1,0,1.71,1.22,1.22,0,0,1-1.71,0l-4-4-4,4a1.22,1.22,0,0,1-.85.35,1.2,1.2,0,0,1-.85-2.06l4-4-4-4a1.2,1.2,0,1,1,1.7-1.7l4,4,4-4a1.21,1.21,0,0,1,1.71,0,1.2,1.2,0,0,1,0,1.7l-4,4Z"/><path class="cls-1" d="M15.84,31.68A15.84,15.84,0,1,1,31.68,15.84,15.86,15.86,0,0,1,15.84,31.68Zm0-29.58A13.74,13.74,0,1,0,29.58,15.84,13.76,13.76,0,0,0,15.84,2.1Z"/></g></g></svg>