<svg xmlns="http://www.w3.org/2000/svg" viewBox="0 0 32.34 27.71"><defs><style>.cls-1{fill:#373d47;}</style></defs><title>Asset 15</title><g id="Layer_2" data-name="Layer 2"><g id="Layer_15" data-name="Layer 15"><path class="cls-1" d="M3.19,27.71A1,1,0,0,1,2.35,26s1.32-1.78,2-2.73A5.38,5.38,0,0,0,5,21.66,11.92,11.92,0,0,1,3.52,3.52,11.85,11.85,0,0,1,12,0h8.4a12,12,0,0,1,0,23.94h-7c-.76.41-3.11,1.69-4.4,2.26A26.48,26.48,0,0,1,3.34,27.7ZM12,2.1A9.86,9.86,0,0,0,6.7,20.3a1,1,0,0,1,.48,1A8.18,8.18,0,0,1,6,24.47l-.44.63a16.34,16.34,0,0,0,2.55-.82c1.43-.64,4.45-2.3,4.48-2.31a1,1,0,0,1,.51-.13h7.22a9.87,9.87,0,0,0,0-19.74Z"/><path class="cls-1" d="M22.61,15.74H9.73a1,1,0,1,1,0-2.1H22.61a1,1,0,1,1,0,2.1Z"/><path class="cls-1" d="M22.61,10.74H9.73a1,1,0,1,1,0-2.1H22.61a1,1,0,1,1,0,2.1Z"/></g></g></svg>