<svg xmlns="http://www.w3.org/2000/svg" viewBox="0 0 31.06 26.94"><defs><style>.cls-1{fill:#373d47;}</style></defs><title>Asset 11</title><g id="Layer_2" data-name="Layer 2"><g id="Layer_11" data-name="Layer 11"><path class="cls-1" d="M27,22.13H4.08A3.56,3.56,0,0,1,.53,18.58v-15A3.56,3.56,0,0,1,4.08,0H27a3.56,3.56,0,0,1,3.55,3.55v15A3.56,3.56,0,0,1,27,22.13ZM4.08,2.29A1.27,1.27,0,0,0,2.82,3.55v15a1.27,1.27,0,0,0,1.26,1.26H27a1.27,1.27,0,0,0,1.26-1.26v-15A1.27,1.27,0,0,0,27,2.29Z"/><path class="cls-1" d="M29.86,26.94H1.2a1.2,1.2,0,0,1,0-2.41H29.86a1.2,1.2,0,0,1,0,2.41Z"/></g></g></svg>