<svg xmlns="http://www.w3.org/2000/svg" viewBox="0 0 26.37 30.37"><defs><style>.cls-1{fill:#373d47;}</style></defs><title>Asset 46</title><g id="Layer_2" data-name="Layer 2"><g id="Layer_38" data-name="Layer 38"><path class="cls-1" d="M26.12,9.61a2.88,2.88,0,0,0-.57-.89L18.29,1a2.94,2.94,0,0,0-1-.69A3.06,3.06,0,0,0,16.07,0H2.77A2.77,2.77,0,0,0,0,2.77V27.61a2.77,2.77,0,0,0,2.77,2.76H23.6a2.77,2.77,0,0,0,2.77-2.76V10.81A2.87,2.87,0,0,0,26.12,9.61ZM22.9,9H19.1A1.12,1.12,0,0,1,18,7.85V3.71Zm1.37,18.64a.67.67,0,0,1-.67.66H2.77a.67.67,0,0,1-.67-.66V2.77a.67.67,0,0,1,.67-.67H15.88V7.85a3.22,3.22,0,0,0,3.22,3.22h5.17Z"/><path class="cls-1" d="M19.44,21H6.56a1,1,0,1,1,0-2.1H19.44a1,1,0,1,1,0,2.1Z"/><path class="cls-1" d="M19.44,16H6.56a1,1,0,1,1,0-2.1H19.44a1,1,0,1,1,0,2.1Z"/></g></g></svg>