<svg xmlns="http://www.w3.org/2000/svg" viewBox="0 0 28.74 29.14"><defs><style>.cls-1{fill:#373d47;}</style></defs><title>Asset 12</title><g id="Layer_2" data-name="Layer 2"><g id="Layer_12" data-name="Layer 12"><path class="cls-1" d="M25.54,29.14H3.2A3.21,3.21,0,0,1,0,25.94V24.09a1.2,1.2,0,0,1,2.41,0v1.85a.81.81,0,0,0,.8.8H25.54a.81.81,0,0,0,.8-.8V24.09a1.2,1.2,0,0,1,2.41,0v1.85A3.21,3.21,0,0,1,25.54,29.14Z"/><path class="cls-1" d="M23.19,14.2l-7.93,7.93a1.19,1.19,0,0,1-.65.33l-.24,0-.2,0a1.05,1.05,0,0,1-.35-.13h0l0,0-.08-.05h0l-.12-.11h0a1.53,1.53,0,0,1-.18-.18L5.55,14.12a1.2,1.2,0,1,1,1.7-1.7l5.91,5.91V1.2a1.2,1.2,0,0,1,2.41,0V18.42l5.92-5.93a1.21,1.21,0,1,1,1.7,1.71Z"/></g></g></svg>