<?xml version="1.0" encoding="UTF-8"?>
<svg width="13px" height="13px" viewBox="0 0 13 13" version="1.1" xmlns="http://www.w3.org/2000/svg" xmlns:xlink="http://www.w3.org/1999/xlink">
    <!-- Generator: Sketch 44.1 (41455) - http://www.bohemiancoding.com/sketch -->
    <title>Fill 95</title>
    <desc>Created with Sketch.</desc>
    <defs></defs>
    <g id="Page-1" stroke="none" stroke-width="1" fill="none" fill-rule="evenodd">
        <g id="Guides" transform="translate(-172.000000, -2369.000000)" fill="#373D47">
            <g id="Group-10" transform="translate(162.000000, 2360.000000)">
                <path d="M22.0596,19.8306 C22.5296,20.3016 22.5296,21.0706 22.0596,21.5406 C21.8196,21.7706 21.5096,21.8916 21.2096,21.8916 C20.8996,21.8916 20.5896,21.7706 20.3496,21.5406 L16.3596,17.5516 L12.3696,21.5406 C12.1296,21.7706 11.8296,21.8916 11.5196,21.8916 C11.2096,21.8916 10.8996,21.7706 10.6696,21.5406 C10.1996,21.0706 10.1996,20.3016 10.6696,19.8306 L14.6596,15.8416 L10.6696,11.8516 C10.1996,11.3816 10.1996,10.6206 10.6696,10.1506 C11.1396,9.6816 11.8996,9.6816 12.3696,10.1506 L16.3596,14.1416 L20.3496,10.1506 C20.8296,9.6816 21.5896,9.6816 22.0596,10.1506 C22.5296,10.6206 22.5296,11.3816 22.0596,11.8516 L18.0696,15.8416 L22.0596,19.8306 Z" id="Fill-95"></path>
            </g>
        </g>
    </g>
</svg>