<svg xmlns="http://www.w3.org/2000/svg" viewBox="0 0 18.6 20.46"><defs><style>.cls-1{fill:#373d47;}</style></defs><title>Asset 9</title><g id="Layer_2" data-name="Layer 2"><g id="Layer_9" data-name="Layer 9"><path class="cls-1" d="M17.55,0a1,1,0,0,0-1,1V9.19a2.26,2.26,0,0,0-.94-1L3.6.68A2.4,2.4,0,0,0,0,2.76v15a2.37,2.37,0,0,0,1.2,2.07,2.31,2.31,0,0,0,1.19.32,2.44,2.44,0,0,0,1.24-.34l11.91-7.45a2.35,2.35,0,0,0,1-1v8.14a1,1,0,0,0,2.1,0V1A1,1,0,0,0,17.55,0ZM14.46,10.51,2.55,18a.29.29,0,0,1-.3,0,.27.27,0,0,1-.15-.25v-15a.31.31,0,0,1,.15-.26.42.42,0,0,1,.16,0,.22.22,0,0,1,.11,0L14.46,10l0,0a.26.26,0,0,1,.15.25A.3.3,0,0,1,14.46,10.51Z"/></g></g></svg>