<svg xmlns="http://www.w3.org/2000/svg" viewBox="0 0 28.43 23.24"><defs><style>.cls-1{fill:#373d47;}</style></defs><title>Asset 47</title><g id="Layer_2" data-name="Layer 2"><g id="Layer_39" data-name="Layer 39"><path class="cls-1" d="M1,9.74a1,1,0,0,1-1-1V3A3.05,3.05,0,0,1,3,0H8.88a1,1,0,1,1,0,2.1H3a1,1,0,0,0-1,1V8.69A1,1,0,0,1,1,9.74Z"/><path class="cls-1" d="M8.88,23.24H3a3.05,3.05,0,0,1-3-3v-4.5a1,1,0,1,1,2.1,0v4.5a1,1,0,0,0,1,1H8.88a1,1,0,0,1,0,2.1Z"/><path class="cls-1" d="M25.38,23.24H19.55a1,1,0,1,1,0-2.1h5.83a1,1,0,0,0,1-1v-4.5a1,1,0,0,1,2.1,0v4.5A3.05,3.05,0,0,1,25.38,23.24Z"/><path class="cls-1" d="M27.38,9.74a1,1,0,0,1-1-1V3a1,1,0,0,0-1-1H19.55a1,1,0,1,1,0-2.1h5.83a3.05,3.05,0,0,1,3,3V8.69A1,1,0,0,1,27.38,9.74Z"/></g></g></svg>