<svg xmlns="http://www.w3.org/2000/svg" viewBox="0 0 28.43 23.24"><defs><style>.cls-1{fill:#373d47;}</style></defs><title>Asset 48</title><g id="Layer_2" data-name="Layer 2"><g id="Layer_40" data-name="Layer 40"><path class="cls-1" d="M6.88,9.74H1a1,1,0,0,1,0-2.1H6.88a1,1,0,0,0,1-1V1a1,1,0,0,1,2.1,0V6.69A3.05,3.05,0,0,1,6.88,9.74Z"/><path class="cls-1" d="M8.88,23.24a1,1,0,0,1-1-1v-4.5a1,1,0,0,0-1-1H1a1,1,0,0,1,0-2.1H6.88a3.05,3.05,0,0,1,3,3v4.5A1,1,0,0,1,8.88,23.24Z"/><path class="cls-1" d="M19.55,23.24a1,1,0,0,1-1-1v-4.5a3.05,3.05,0,0,1,3-3h5.83a1,1,0,0,1,0,2.1H21.55a1,1,0,0,0-1,1v4.5A1,1,0,0,1,19.55,23.24Z"/><path class="cls-1" d="M27.38,9.74H21.55a3.05,3.05,0,0,1-3-3V1a1,1,0,0,1,2.1,0V6.69a1,1,0,0,0,1,1h5.83a1,1,0,1,1,0,2.1Z"/></g></g></svg>