<svg xmlns="http://www.w3.org/2000/svg" viewBox="0 0 29.79 22.49"><defs><style>.cls-1{fill:#373d47;}</style></defs><title>Asset 41</title><g id="Layer_2" data-name="Layer 2"><g id="Layer_33" data-name="Layer 33"><path class="cls-1" d="M24,3,21.8.82a2.77,2.77,0,0,0-3.88,0L5.21,10.9,5.13,11a2.07,2.07,0,0,0-.51.8.61.61,0,0,0,0,.18l-.86,5L.27,20.74a1,1,0,0,0,.78,1.75H5.84a1.07,1.07,0,0,0,.64-.21l2-1.51,4.27-.56.22-.05a2.23,2.23,0,0,0,.8-.51l.08-.09L24,6.87A2.77,2.77,0,0,0,24.79,5,2.8,2.8,0,0,0,24,3ZM8,18.72a1,1,0,0,0-.5.2l-2,1.47H3.41l2.06-2.28a1,1,0,0,0,.25-.52l.72-4.13,4.82,4.82ZM22.49,5.43l-.08.09L13.09,17.15,7.63,11.67,19.27,2.38l.09-.08a.67.67,0,0,1,.48-.2.63.63,0,0,1,.47.2l2.18,2.18a.67.67,0,0,1,.2.48A.63.63,0,0,1,22.49,5.43Z"/><path class="cls-1" d="M28.74,22.49H15.46a1,1,0,1,1,0-2.1H28.74a1,1,0,1,1,0,2.1Z"/></g></g></svg>