<svg xmlns="http://www.w3.org/2000/svg" viewBox="0 0 31.44 30.44"><defs><style>.cls-1{fill:#373d47;}</style></defs><title>Asset 42</title><g id="Layer_2" data-name="Layer 2"><g id="Layer_34" data-name="Layer 34"><circle class="cls-1" cx="21.1" cy="9.94" r="3.22"/><path class="cls-1" d="M28.61,0H2.83A2.83,2.83,0,0,0,0,2.83V27.61a2.83,2.83,0,0,0,2.83,2.83H28.61a2.83,2.83,0,0,0,2.83-2.83V2.83A2.83,2.83,0,0,0,28.61,0ZM2.41,27V2.83a.43.43,0,0,1,.42-.43H28.61a.43.43,0,0,1,.42.43V26.3l-5.61-8a1.19,1.19,0,0,0-.81-.51,1.28,1.28,0,0,0-.93.25L18.2,20.8,13,13.72a1.25,1.25,0,0,0-1-.49,1.22,1.22,0,0,0-1,.55Zm2.2,1,7.47-11.48L17,23.23a1.2,1.2,0,0,0,.81.48,1.25,1.25,0,0,0,.91-.25l3.46-2.76L27.3,28Z"/></g></g></svg>