<svg xmlns="http://www.w3.org/2000/svg" viewBox="0 0 31.35 26.84"><defs><style>.cls-1{fill:#373d47;}</style></defs><title>Asset 14</title><g id="Layer_2" data-name="Layer 2"><g id="Layer_14" data-name="Layer 14"><path class="cls-1" d="M11.63,17.85l0,0,1.88,1.34Z"/><path class="cls-1" d="M9.15,18.56a.73.73,0,0,0,.2.19l2.1,1.49Z"/><path class="cls-1" d="M31.34,1.14a1,1,0,0,0-.12-.62A1,1,0,0,0,30,.06L.67,10.52a1,1,0,0,0-.66.81,1,1,0,0,0,.41,1l6.66,4.76v8.39a1,1,0,0,0,.65,1,.92.92,0,0,0,.36.07,1.06,1.06,0,0,0,.76-.33l4.26-4.71,7.33,5.22a1,1,0,0,0,.59.19.93.93,0,0,0,.29,0,1,1,0,0,0,.66-.61L31.29,1.58A1,1,0,0,0,31.34,1.14ZM3.19,11.78l22-7.86L9.89,16.57l-1.05-.75-.29-.2Zm5.92,11V18.53l0,0,2.3,1.68Zm11.43,1.41-7-5-.07,0-1.88-1.34,0,0L28,4.41Z"/></g></g></svg>