<svg xmlns="http://www.w3.org/2000/svg" viewBox="0 0 24.56 32.89"><defs><style>.cls-1{fill:#373d47;}</style></defs><title>Asset 54</title><g id="Layer_2" data-name="Layer 2"><g id="Layer_46" data-name="Layer 46"><path class="cls-1" d="M12.48,21.74h-.35a5.8,5.8,0,0,1-5.79-5.79V5.79A5.8,5.8,0,0,1,12.12,0h.35a5.8,5.8,0,0,1,5.79,5.79V15.95A5.8,5.8,0,0,1,12.48,21.74ZM12.12,2.1A3.69,3.69,0,0,0,8.43,5.79V15.95a3.69,3.69,0,0,0,3.69,3.69h.35a3.69,3.69,0,0,0,3.69-3.69V5.79A3.69,3.69,0,0,0,12.48,2.1Z"/><path class="cls-1" d="M24.52,17.69a12.68,12.68,0,0,1-11,9.25v4.75a1.2,1.2,0,1,1-2.4,0V26.95A12.68,12.68,0,0,1,0,17.56a1.2,1.2,0,0,1,2.33-.61A10.27,10.27,0,0,0,22.2,17a1.2,1.2,0,1,1,2.32.64Z"/></g></g></svg>