<svg xmlns="http://www.w3.org/2000/svg" viewBox="0 0 26.26 26.25"><defs><style>.cls-1{fill:#373d47;}</style></defs><title>Asset 26</title><g id="Layer_2" data-name="Layer 2"><g id="Layer_18" data-name="Layer 18"><path class="cls-1" d="M26.26,13.2a1.07,1.07,0,0,1-.32.75l-2.67,2.58a1,1,0,0,1-.73.29,1,1,0,0,1-.75-.32,1,1,0,0,1,0-1.48l.8-.77H14.18V22.6l.77-.8a1,1,0,0,1,1.49,0,1,1,0,0,1,0,1.48l-2.57,2.67h0a1,1,0,0,1-.74.31,1.15,1.15,0,0,1-.41-.08,1.3,1.3,0,0,1-.33-.23h0L9.8,23.26a1.05,1.05,0,0,1,1.51-1.46l.77.8V14.25H3.65l.8.77a1,1,0,0,1-.73,1.8A1,1,0,0,1,3,16.53L.32,13.95a1.05,1.05,0,0,1,0-1.51L3,9.86a1.06,1.06,0,0,1,1.49,0,1,1,0,0,1,0,1.48l-.81.78h8.44V3.64l-.77.8A1.05,1.05,0,0,1,9.8,3L12.38.31a1.08,1.08,0,0,1,1.51,0L16.46,3a1.05,1.05,0,0,1-.75,1.78,1.09,1.09,0,0,1-.76-.32l-.77-.8v8.51h8.44l-.81-.78a1.05,1.05,0,0,1,1.46-1.51l2.67,2.58A1.07,1.07,0,0,1,26.26,13.2Z"/></g></g></svg>