<svg xmlns="http://www.w3.org/2000/svg" viewBox="0 0 31.31 30.77"><defs><style>.cls-1{fill:#373d47;}</style></defs><title>Asset 44</title><g id="Layer_2" data-name="Layer 2"><g id="Layer_36" data-name="Layer 36"><path class="cls-1" d="M31.28.85a1,1,0,0,0-.37-.61.56.56,0,0,0-.15-.1.52.52,0,0,0-.15-.07l0,0a.58.58,0,0,0-.14,0,.81.81,0,0,0-.38,0H30L9.52,4a.11.11,0,0,0-.08,0h0l-.18,0-.14.07,0,0-.13.1-.12.13h0a.56.56,0,0,0-.1.15.52.52,0,0,0-.07.15s0,0,0,0l0,.14a1.1,1.1,0,0,0,0,.18V21.18a5.85,5.85,0,0,0-6,1C.05,24.05-.76,27.24.77,29.23a4.17,4.17,0,0,0,3.37,1.54h.07a6.55,6.55,0,0,0,3.88-1.42A6.56,6.56,0,0,0,10.47,26a4.81,4.81,0,0,0,.18-1.66h0a.37.37,0,0,0,0-.11V10.52L29.2,6.92V17.18a5.85,5.85,0,0,0-6,1c-2.52,1.92-3.32,5.11-1.8,7.1a4.17,4.17,0,0,0,3.38,1.54h.06A6.93,6.93,0,0,0,31.11,22a4.73,4.73,0,0,0,.18-1.65h0a.49.49,0,0,0,0-.12V1.05A1.5,1.5,0,0,0,31.28.85ZM8.45,25.4a4.52,4.52,0,0,1-1.64,2.29,4.58,4.58,0,0,1-2.63,1A2.1,2.1,0,0,1,2.43,28c-.8-1-.16-3,1.41-4.15a4.49,4.49,0,0,1,2.67-1,2.09,2.09,0,0,1,1.71.72A2.08,2.08,0,0,1,8.45,25.4Zm20.64-4a4.64,4.64,0,0,1-1.64,2.29,4.58,4.58,0,0,1-2.63,1A2.12,2.12,0,0,1,23.07,24c-.81-1-.17-3,1.4-4.15a4.5,4.5,0,0,1,2.68-1,1.87,1.87,0,0,1,1.94,2.59ZM29.2,4.77,10.66,8.37V5.92L29.2,2.32Z"/></g></g></svg>