<svg xmlns="http://www.w3.org/2000/svg" viewBox="0 0 32.38 28.1"><defs><style>.cls-1{fill:#373d47;}</style></defs><title>Asset 53</title><g id="Layer_2" data-name="Layer 2"><g id="Layer_45" data-name="Layer 45"><path class="cls-1" d="M15.92,28.1a1.93,1.93,0,0,1-1.21-.43L6.4,21H2.84A2.86,2.86,0,0,1,0,18.1V10.35A2.86,2.86,0,0,1,2.84,7.48H6.39l8.28-7A1.92,1.92,0,0,1,16.74.18,1.94,1.94,0,0,1,17.87,2V26.14a2,2,0,0,1-2,2ZM2.84,9.58a.76.76,0,0,0-.74.77V18.1a.76.76,0,0,0,.74.77H6.46a1.94,1.94,0,0,1,1.22.43l8.09,6.53V2.28L7.7,9.12a1.94,1.94,0,0,1-1.25.46ZM6.46,21h0Z"/><path class="cls-1" d="M32.07,18a1.09,1.09,0,0,1-.77,1.85,1.11,1.11,0,0,1-.77-.32L26.94,16l-3.6,3.59A1.08,1.08,0,0,1,21.81,18l3.59-3.6-3.59-3.59a1.1,1.1,0,0,1,0-1.54,1.09,1.09,0,0,1,1.53,0l3.6,3.6,3.59-3.6a1.09,1.09,0,0,1,1.54,1.54l-3.6,3.59Z"/></g></g></svg>