<svg xmlns="http://www.w3.org/2000/svg" viewBox="0 0 24.39 24.39"><defs><style>.cls-1{fill:#373d47;}</style></defs><title>Asset 40</title><g id="Layer_2" data-name="Layer 2"><g id="Layer_32" data-name="Layer 32"><path class="cls-1" d="M23.2,2.76,21.63,1.18a4.07,4.07,0,0,0-5.73,0L15.08,2,3.84,13.25l-.1.11a.17.17,0,0,0-.06.06,4.26,4.26,0,0,0-.25.39,0,0,0,0,0,0,0,1.54,1.54,0,0,0-.08.19L.06,23a1.06,1.06,0,0,0,1,1.41,1.13,1.13,0,0,0,.36-.06l9-3.28.17-.07,0,0a2.59,2.59,0,0,0,.39-.25l0,0,.14-.13L23.2,8.49a4,4,0,0,0,0-5.73ZM2.82,21.57l2-5.5,3.48,3.48Zm7.4-3.08L5.9,14.16l9.93-9.92,4.32,4.32ZM21.72,7l-.08.08L17.31,2.75l.08-.08a1.9,1.9,0,0,1,1.37-.57,1.92,1.92,0,0,1,1.38.57l1.58,1.58a1.94,1.94,0,0,1,0,2.75Z"/><path class="cls-1" d="M3.68,13.42a4.26,4.26,0,0,0-.25.39,1.15,1.15,0,0,1,.24-.39Z"/><path class="cls-1" d="M11,20.71h0a.94.94,0,0,1-.39.24A2.59,2.59,0,0,0,11,20.71Z"/></g></g></svg>