<svg xmlns="http://www.w3.org/2000/svg" viewBox="0 0 29.58 29.58"><defs><style>.cls-1{fill:#373d47;}</style></defs><title>Asset 58</title><g id="Layer_2" data-name="Layer 2"><g id="Layer_51" data-name="Layer 51"><path class="cls-1" d="M25.25,4.33a14.79,14.79,0,1,0,0,20.92A14.79,14.79,0,0,0,25.25,4.33ZM16,21.66a1.21,1.21,0,0,1-1.21,1.21,1.22,1.22,0,0,1-1.21-1.21V16H8a1.22,1.22,0,0,1-.85-.35A1.2,1.2,0,0,1,8,13.61h5.64V8a1.21,1.21,0,0,1,1.21-1.21A1.2,1.2,0,0,1,16,8V13.6h5.64a1.21,1.21,0,1,1,0,2.42H16Z"/></g></g></svg>