<svg xmlns="http://www.w3.org/2000/svg" viewBox="0 0 29.82 24.94"><defs><style>.cls-1{fill:#373d47;}</style></defs><title>Asset 49</title><g id="Layer_2" data-name="Layer 2"><g id="Layer_41" data-name="Layer 41"><path class="cls-1" d="M26.36,24.94H3.46A3.46,3.46,0,0,1,0,21.49v-18A3.46,3.46,0,0,1,3.46,0h22.9a3.46,3.46,0,0,1,3.46,3.46v18A3.46,3.46,0,0,1,26.36,24.94ZM3.46,2.1A1.36,1.36,0,0,0,2.1,3.46v18a1.36,1.36,0,0,0,1.36,1.36h22.9a1.36,1.36,0,0,0,1.36-1.36v-18A1.36,1.36,0,0,0,26.36,2.1Z"/><circle class="cls-1" cx="5.79" cy="12.41" r="2"/><path class="cls-1" d="M14.49,14.12a.8.8,0,0,1,.15.46.74.74,0,0,1-.73.73.76.76,0,0,1-.6-.31l-1.2-1.71h-.83v1.27a.74.74,0,1,1-1.48,0V10.28a.7.7,0,0,1,.78-.78h2.09a1.85,1.85,0,0,1,2,1.91,1.77,1.77,0,0,1-1,1.66ZM11.28,12h1.17a.65.65,0,1,0,0-1.29H11.28Z"/><path class="cls-1" d="M15.48,14.46V10.28a.7.7,0,0,1,.78-.78h2.87a.62.62,0,0,1,0,1.25H17v1h2.12a.63.63,0,0,1,0,1.26H17v1h2.18a.62.62,0,0,1,.62.62.63.63,0,0,1-.62.63H16.27A.7.7,0,0,1,15.48,14.46Z"/><path class="cls-1" d="M20.25,12.38a2.92,2.92,0,0,1,3.06-3,2.68,2.68,0,0,1,2.08.85.69.69,0,0,1-.52,1.17.69.69,0,0,1-.52-.23,1.36,1.36,0,0,0-1-.48,1.58,1.58,0,0,0-1.56,1.66A1.58,1.58,0,0,0,23.32,14a1.4,1.4,0,0,0,1.05-.48.66.66,0,0,1,.52-.23.7.7,0,0,1,.7.7.71.71,0,0,1-.18.46,2.7,2.7,0,0,1-2.08.86A2.92,2.92,0,0,1,20.25,12.38Z"/></g></g></svg>