<svg xmlns="http://www.w3.org/2000/svg" viewBox="0 0 24.8 21.15"><defs><style>.cls-1{fill:#373d47;}</style></defs><title>Asset 28</title><g id="Layer_2" data-name="Layer 2"><g id="Layer_20" data-name="Layer 20"><path class="cls-1" d="M24.8,6.28a1.11,1.11,0,0,1-.4.85L18.22,12.3a1.11,1.11,0,0,1-1.42-1.71l3.9-3.26H8.15c-3.34,0-6,2.34-6,5.22v1.28C2.1,16.56,5,19,8.15,19h4.43a1,1,0,1,1,0,2.1H8.15C3.81,21.14,0,17.73,0,13.83V12.55c0-4,3.65-7.32,8.15-7.32H20.7L16.8,2A1.11,1.11,0,0,1,18.22.26L24.4,5.43A1.11,1.11,0,0,1,24.8,6.28Z"/></g></g></svg>