<svg xmlns="http://www.w3.org/2000/svg" viewBox="0 0 25.93 24.74"><defs><style>.cls-1{fill:#373d47;}</style></defs><title>Asset 33</title><g id="Layer_2" data-name="Layer 2"><g id="Layer_25" data-name="Layer 25"><path class="cls-1" d="M22.83,24.74H3.13A3.11,3.11,0,0,1,0,21.64V12.39a1.17,1.17,0,1,1,2.33,0v9.24a.77.77,0,0,0,.77.77h19.7a.78.78,0,0,0,.77-.77V3.88a.78.78,0,0,0-.77-.77H12.41a1.17,1.17,0,1,1,0-2.33H22.83a3.11,3.11,0,0,1,3.1,3.1V21.64A3.11,3.11,0,0,1,22.83,24.74Z"/><circle class="cls-1" cx="3.88" cy="3.88" r="3.88"/></g></g></svg>