<svg xmlns="http://www.w3.org/2000/svg" viewBox="0 0 24.92 23.69"><defs><style>.cls-1{fill:#373d47;}</style></defs><title>Asset 29</title><g id="Layer_2" data-name="Layer 2"><g id="Layer_21" data-name="Layer 21"><path class="cls-1" d="M24.92,17.42a1.11,1.11,0,0,1-.4.85l-6.18,5.16a1.06,1.06,0,0,1-.71.26,1.08,1.08,0,0,1-.85-.4,1.1,1.1,0,0,1,.14-1.56l3.9-3.26H8.05a8.06,8.06,0,0,1-8.05-8V1A1.05,1.05,0,0,1,2.1,1v9.37a6,6,0,0,0,6,6H20.82l-3.9-3.26a1.11,1.11,0,0,1-.14-1.57,1.1,1.1,0,0,1,1.56-.14l6.18,5.16A1.13,1.13,0,0,1,24.92,17.42Z"/></g></g></svg>