<svg xmlns="http://www.w3.org/2000/svg" viewBox="0 0 18.6 20.46"><defs><style>.cls-1{fill:#373d47;}</style></defs><title>Asset 17</title><g id="Layer_2" data-name="Layer 2"><g id="Layer_17" data-name="Layer 17"><path class="cls-1" d="M17.4.68A2.4,2.4,0,0,0,15,.7L3,8.17a2.26,2.26,0,0,0-.94,1V1A1,1,0,0,0,0,1V19.41a1,1,0,0,0,2.1,0V11.28a2.36,2.36,0,0,0,.92,1l12,7.49a2.4,2.4,0,0,0,3.6-2.08V2.76A2.37,2.37,0,0,0,17.4.68Zm-.9,17a.28.28,0,0,1-.15.26.28.28,0,0,1-.27,0l-12-7.49a.3.3,0,0,1,0-.52l0,0L16,2.5a.28.28,0,0,1,.15,0,.33.33,0,0,1,.15,0,.31.31,0,0,1,.15.26Z"/></g></g></svg>