<svg xmlns="http://www.w3.org/2000/svg" viewBox="0 0 29.82 24.94"><defs><style>.cls-1{fill:#373d47;}</style></defs><title>Asset 38</title><g id="Layer_2" data-name="Layer 2"><g id="Layer_30" data-name="Layer 30"><path class="cls-1" d="M26.36,24.94H3.46A3.46,3.46,0,0,1,0,21.48v-18A3.46,3.46,0,0,1,3.46,0h22.9a3.46,3.46,0,0,1,3.46,3.46v18A3.46,3.46,0,0,1,26.36,24.94ZM3.46,2.1A1.36,1.36,0,0,0,2.1,3.46v18a1.36,1.36,0,0,0,1.36,1.36h22.9a1.36,1.36,0,0,0,1.36-1.36v-18A1.36,1.36,0,0,0,26.36,2.1Z"/></g></g></svg>