<svg xmlns="http://www.w3.org/2000/svg" viewBox="0 0 38.66 14.38"><defs><style>.cls-1{fill:#373d47;}</style></defs><title>Asset 36</title><g id="Layer_2" data-name="Layer 2"><g id="Layer_28" data-name="Layer 28"><path class="cls-1" d="M12.16,7.41v5.73a1.1,1.1,0,1,1-2.2,0V13a4.28,4.28,0,0,1-3.28,1.34A3.37,3.37,0,0,1,3.15,11a3.27,3.27,0,0,1,3.53-3.3A4.19,4.19,0,0,1,10,9V7.52c0-1.18-1-1.89-2.37-1.89a4,4,0,0,0-2.37.76,1,1,0,0,1-.5.15.89.89,0,0,1-.88-.88.9.9,0,0,1,.38-.71,6.15,6.15,0,0,1,3.74-1.2C10.18,3.74,12.16,4.68,12.16,7.41ZM10,11.82V10.29a3,3,0,0,0-2.41-1,1.92,1.92,0,0,0-2.16,1.83,1.92,1.92,0,0,0,2.16,1.81A3,3,0,0,0,10,11.82Z"/><path class="cls-1" d="M25,9.07c0,3.34-1.91,5.31-4.49,5.31a4.08,4.08,0,0,1-3.25-1.64v.4a1.1,1.1,0,1,1-2.2,0v-12a1.1,1.1,0,1,1,2.2,0V5.4a4,4,0,0,1,3.25-1.66C23.08,3.74,25,5.79,25,9.07Zm-2.27,0c0-2-1.11-3.38-2.88-3.38a3.31,3.31,0,0,0-2.6,1.39v4a3.27,3.27,0,0,0,2.6,1.34C21.58,12.43,22.7,11,22.7,9.07Z"/><path class="cls-1" d="M31.83,3.74A4.73,4.73,0,0,1,35,4.83a1,1,0,0,1,.36.76,1,1,0,0,1-1.64.76,2.71,2.71,0,0,0-1.83-.65A3.06,3.06,0,0,0,28.87,9a3.08,3.08,0,0,0,3.07,3.38,2.71,2.71,0,0,0,1.83-.65,1,1,0,0,1,.63-.23,1,1,0,0,1,1,1,1,1,0,0,1-.36.76,4.73,4.73,0,0,1-3.21,1.09A5.09,5.09,0,0,1,26.58,9,5.09,5.09,0,0,1,31.83,3.74Z"/><path class="cls-1" d="M37.45,9.85H1.2A1.16,1.16,0,0,1,0,8.75a1.16,1.16,0,0,1,1.2-1.1H37.45a1.16,1.16,0,0,1,1.2,1.1A1.16,1.16,0,0,1,37.45,9.85Z"/></g></g></svg>