<svg xmlns="http://www.w3.org/2000/svg" viewBox="0 0 31.37 33.69"><defs><style>.cls-1{fill:#373d47;}</style></defs><title>Asset 55</title><g id="Layer_2" data-name="Layer 2"><g id="Layer_47" data-name="Layer 47"><path class="cls-1" d="M31.37,18A15.68,15.68,0,1,1,3.76,7.82,1,1,0,0,1,5.35,9.19,13.59,13.59,0,1,0,16.08,4.43V6.35a.4.4,0,0,1-.6.34l-5.15-3a.4.4,0,0,1,0-.69l5.15-3a.4.4,0,0,1,.6.35V2.33A15.7,15.7,0,0,1,31.37,18Z"/><path class="cls-1" d="M10.69,21.43V15.55l-1,1.05a.84.84,0,0,1-.59.25A.83.83,0,0,1,8.26,16a.86.86,0,0,1,.24-.59l2.21-2.21a1.16,1.16,0,0,1,2,.81v7.4a1,1,0,0,1-2,0Z"/><path class="cls-1" d="M18.3,12.85c2.66,0,3.87,2.41,3.87,4.82S21,22.5,18.3,22.5s-3.87-2.42-3.87-4.83S15.63,12.85,18.3,12.85Zm0,1.76c-1.34,0-1.85,1.33-1.85,3.05s.5,3.07,1.85,3.07,1.83-1.34,1.83-3.07S19.63,14.61,18.3,14.61Z"/></g></g></svg>