<?xml version="1.0" encoding="UTF-8"?>
<svg width="50px" height="54px" viewBox="0 0 50 54" version="1.1" xmlns="http://www.w3.org/2000/svg" xmlns:xlink="http://www.w3.org/1999/xlink">
    <!-- Generator: Sketch 46.1 (44463) - http://www.bohemiancoding.com/sketch -->
    <title>forward 10s</title>
    <desc>Created with Sketch.</desc>
    <defs></defs>
    <g id="Page-1" stroke="none" stroke-width="1" fill="none" fill-rule="evenodd">
        <g id="82.Reviewer-view-Audio" transform="translate(-653.000000, -693.000000)" fill="#898E96">
            <g id="play-control" transform="translate(387.000000, 693.000000)">
                <g id="forward-10s" transform="translate(266.000000, 0.000000)">
                    <path d="M0.000158898305,28.6213983 C0.000158898305,42.3502119 11.1865996,53.5366525 24.9154131,53.5366525 C38.6601165,53.5366525 49.8465572,42.3502119 49.8465572,28.6213983 C49.8465572,22.6786017 47.7173199,16.9423729 43.8719809,12.429661 C43.2840572,11.7305085 42.2194386,11.6510593 41.520286,12.2548729 C40.8211335,12.8427966 40.7416843,13.9074153 41.3454979,14.6065678 C44.6664725,18.4995763 46.5096928,23.4730932 46.5096928,28.6213983 C46.5096928,40.5228814 36.8168962,50.1997881 24.9154131,50.1997881 C13.0139301,50.1997881 3.33702331,40.5228814 3.33702331,28.6213983 C3.33702331,16.9264831 12.6786547,7.36080508 24.2957097,7.04300847 L24.2957097,10.0938559 C24.2957097,10.5705508 24.835964,10.8883475 25.2490996,10.6341102 L33.4323623,5.91483051 C33.8613877,5.66059322 33.8613877,5.05677966 33.4323623,4.8184322 L25.2490996,0.0832627119 C24.835964,-0.155084746 24.2957097,0.146822034 24.2957097,0.63940678 L24.2957097,3.70614407 C10.8529131,4.02394068 0.000158898305,15.0832627 0.000158898305,28.6213983" id="Fill-1"></path>
                    <path d="M16.9808263,34.0549258 L16.9808263,24.7069386 L15.3791314,26.3753708 C15.134428,26.6200742 14.8007415,26.7757945 14.4432203,26.7757945 C13.7091102,26.7757945 13.1307203,26.1767479 13.1307203,25.4632945 C13.1307203,25.0851165 13.2864407,24.7736758 13.5088983,24.5289725 L17.0253178,21.012553 C17.3590042,20.6788665 17.8261653,20.4786547 18.3378178,20.4786547 C19.3404661,20.4786547 20.1651483,21.3017479 20.1651483,22.3028072 L20.1651483,34.0549258 C20.1651483,34.9002648 19.4532839,35.635964 18.5841102,35.635964 C17.6926907,35.635964 16.9808263,34.9002648 16.9808263,34.0549258" id="Fill-4"></path>
                    <path d="M29.084428,23.2152013 C26.9472458,23.2152013 26.1448093,25.3301377 26.1448093,28.0679555 C26.1448093,30.8057733 26.9472458,32.9429555 29.084428,32.9429555 C31.1977754,32.9429555 32.0002119,30.8057733 32.0002119,28.0679555 C32.0002119,25.3301377 31.1977754,23.2152013 29.084428,23.2152013 M29.084428,20.4106462 C33.3127119,20.4106462 35.2258475,24.2400953 35.2258475,28.0679555 C35.2258475,31.8958157 33.3127119,35.7459216 29.084428,35.7459216 C24.8323093,35.7459216 22.9414195,31.8958157 22.9414195,28.0679555 C22.9414195,24.2400953 24.8323093,20.4106462 29.084428,20.4106462" id="Fill-6"></path>
                </g>
            </g>
        </g>
    </g>
</svg>