<svg xmlns="http://www.w3.org/2000/svg" viewBox="0 0 30.85 31.1"><defs><style>.cls-1{fill:#373d47;}</style></defs><title>Asset 16</title><g id="Layer_2" data-name="Layer 2"><g id="Layer_16" data-name="Layer 16"><path class="cls-1" d="M28.6,4.2h-6a.76.76,0,0,0,0-.15V2.25A2.25,2.25,0,0,0,20.31,0H10.54A2.25,2.25,0,0,0,8.29,2.25V4a.76.76,0,0,0,0,.15h-6A2.25,2.25,0,0,0,0,6.45v1.8A2.25,2.25,0,0,0,2.25,10.5H4.12a2.94,2.94,0,0,0-.15.94V28.06a3,3,0,0,0,3,3H23.84a3,3,0,0,0,3-3V11.44a2.94,2.94,0,0,0-.15-.94H28.6a2.25,2.25,0,0,0,2.25-2.25V6.45A2.25,2.25,0,0,0,28.6,4.2Zm-18.21-2a.15.15,0,0,1,.15-.15h9.77a.15.15,0,0,1,.15.15V4a.15.15,0,0,1-.15.15H10.54A.15.15,0,0,1,10.39,4Zm14.39,9.19V28.06a.94.94,0,0,1-.94.94H7a.94.94,0,0,1-.94-.94V11.44A1,1,0,0,1,7,10.5H23.84A1,1,0,0,1,24.78,11.44Zm4-3.19a.15.15,0,0,1-.15.15H2.25a.15.15,0,0,1-.15-.15V6.45a.15.15,0,0,1,.15-.15H28.6a.15.15,0,0,1,.15.15Z"/><path class="cls-1" d="M12.27,25.33a1,1,0,0,1-1-1V14.6a1,1,0,1,1,2.1,0v9.69A1,1,0,0,1,12.27,25.33Z"/><path class="cls-1" d="M18.58,25.33a1,1,0,0,1-1-1V14.6a1,1,0,1,1,2.1,0v9.69A1,1,0,0,1,18.58,25.33Z"/></g></g></svg>