<?xml version="1.0" encoding="UTF-8"?>
<svg width="26px" height="21px" viewBox="0 0 26 21" version="1.1" xmlns="http://www.w3.org/2000/svg" xmlns:xlink="http://www.w3.org/1999/xlink">
    <!-- Generator: Sketch 44.1 (41455) - http://www.bohemiancoding.com/sketch -->
    <title>twitter logo</title>
    <desc>Created with Sketch.</desc>
    <defs></defs>
    <g id="Page-1" stroke="none" stroke-width="1" fill="none" fill-rule="evenodd">
        <g id="2.Sign-up-Textbox-active" transform="translate(-707.000000, -755.000000)" fill="#FFFFFF">
            <g id="twitter-signup" transform="translate(675.000000, 745.000000)">
                <path d="M54.5647367,13.3768263 C55.613641,12.7363765 56.4180071,11.7224477 56.7951181,10.514422 C55.8142174,11.1072235 54.7302809,11.53746 53.5721587,11.7686946 C52.6496449,10.7631744 51.329413,10.1346367 49.8697394,10.1346367 C47.0692267,10.1346367 44.7976311,12.4525885 44.7976311,15.3093872 C44.7976311,15.7157995 44.8409061,16.1095991 44.9281431,16.4886837 C40.7132925,16.2714633 36.9751542,14.2134752 34.4706976,11.0805965 C34.0338259,11.8471743 33.7851662,12.7363765 33.7851662,13.6844384 C33.7851662,15.4782585 34.6808906,17.062566 36.040963,17.9924094 C35.2111815,17.9657824 34.4274226,17.7310442 33.7418912,17.3456532 L33.7418912,17.4087172 C33.7418912,19.9179632 35.4914388,22.0095854 37.8131786,22.483266 C37.3879842,22.6051897 36.9408089,22.6654509 36.4764609,22.6654509 C36.1494941,22.6654509 35.8314569,22.6346196 35.5223496,22.5743584 C36.1680405,24.6295437 38.0398573,26.1262623 40.2613088,26.1662028 C38.5241255,27.555012 36.3356454,28.3825516 33.960327,28.3825516 C33.5509315,28.3825516 33.1463443,28.3587275 32.75,28.3110791 C34.9954932,29.7776672 37.6620594,30.6346367 40.5257674,30.6346367 C49.8601227,30.6346367 54.9610811,22.7509376 54.9610811,15.9105972 C54.9610811,15.6856689 54.9569596,15.4614414 54.946656,15.2414182 C55.9392341,14.5105767 56.8013002,13.5989517 57.4785888,12.5618995 C56.5684393,12.9732168 55.5902863,13.251399 54.5647367,13.3768263 Z" id="twitter-logo"></path>
            </g>
        </g>
    </g>
</svg>