<svg xmlns="http://www.w3.org/2000/svg" viewBox="0 0 24.8 21.15"><defs><style>.cls-1{fill:#373d47;}</style></defs><title>Asset 27</title><g id="Layer_2" data-name="Layer 2"><g id="Layer_19" data-name="Layer 19"><path class="cls-1" d="M24.8,12.55v1.28c0,3.9-3.8,7.31-8.14,7.31H12.22a1,1,0,0,1,0-2.1h4.44c3.16,0,6-2.48,6-5.21V12.55c0-2.88-2.71-5.22-6-5.22H4.11L8,10.59A1.11,1.11,0,1,1,6.58,12.3L.4,7.13a1.1,1.1,0,0,1,0-1.7L6.58.26A1.11,1.11,0,1,1,8,2L4.11,5.23H16.66C21.15,5.23,24.8,8.51,24.8,12.55Z"/></g></g></svg>