<svg xmlns="http://www.w3.org/2000/svg" viewBox="0 0 31.68 31.68"><defs><style>.cls-1{fill:#373d47;}</style></defs><title>Asset 8</title><g id="Layer_2" data-name="Layer 2"><g id="Layer_8" data-name="Layer 8"><path class="cls-1" d="M9,18.78A1.2,1.2,0,0,1,9.33,18l5.59-6.69a1.2,1.2,0,0,1,1.85,0L22.36,18a1.2,1.2,0,0,1-1.85,1.54L15.84,14l-4.67,5.58A1.2,1.2,0,0,1,9,18.78Z"/><path class="cls-1" d="M15.84,31.68A15.84,15.84,0,1,1,31.68,15.84,15.86,15.86,0,0,1,15.84,31.68Zm0-29.58A13.74,13.74,0,1,0,29.58,15.84,13.76,13.76,0,0,0,15.84,2.1Z"/></g></g></svg>