<svg xmlns="http://www.w3.org/2000/svg" viewBox="0 0 28.74 29.14"><defs><style>.cls-1{fill:#373d47;}</style></defs><title>Asset 13</title><g id="Layer_2" data-name="Layer 2"><g id="Layer_13" data-name="Layer 13"><path class="cls-1" d="M25.54,29.14H3.2A3.21,3.21,0,0,1,0,25.94V24.09a1.2,1.2,0,0,1,2.41,0v1.85a.81.81,0,0,0,.8.8H25.54a.81.81,0,0,0,.8-.8V24.09a1.2,1.2,0,0,1,2.41,0v1.85A3.21,3.21,0,0,1,25.54,29.14Z"/><path class="cls-1" d="M23.19,10.06a1.2,1.2,0,0,1-1.71,0L15.57,4.15V21.28a1.21,1.21,0,0,1-2.41,0V4.08L7.25,10a1.2,1.2,0,1,1-1.7-1.7L13.48.35A1,1,0,0,1,13.87.1L14.1,0l.23,0,.23,0a1.41,1.41,0,0,1,.22.06,1.15,1.15,0,0,1,.4.26l8,8A1.2,1.2,0,0,1,23.19,10.06Z"/><path class="cls-1" d="M14.37,0a.63.63,0,0,1,.19,0l-.23,0Z"/><path class="cls-1" d="M15.18.35A1.12,1.12,0,0,0,15,.2a1.09,1.09,0,0,1,.37.33Z"/><path class="cls-1" d="M14.78.09,15,.2A1,1,0,0,0,14.78.09Z"/></g></g></svg>