<svg xmlns="http://www.w3.org/2000/svg" viewBox="0 0 33.27 22.72"><defs><style>.cls-1{fill:#373d47;}</style></defs><title>Asset 45</title><g id="Layer_2" data-name="Layer 2"><g id="Layer_37" data-name="Layer 37"><path class="cls-1" d="M21.67,22.72H2.9A2.9,2.9,0,0,1,0,19.82V2.9A2.9,2.9,0,0,1,2.9,0H21.67a2.9,2.9,0,0,1,2.9,2.9V6.52l5.84-3.46a1.88,1.88,0,0,1,2.86,1.61V18.05a1.88,1.88,0,0,1-2.89,1.6l-5.81-3.44v3.62A2.9,2.9,0,0,1,21.67,22.72ZM2.9,2.1a.8.8,0,0,0-.8.8V19.82a.8.8,0,0,0,.8.8H21.67a.8.8,0,0,0,.8-.8V14.37a1,1,0,0,1,1.58-.9l7.12,4.21V5.06L24.05,9.27a1,1,0,0,1-1.58-.9V2.9a.8.8,0,0,0-.8-.8ZM31.47,17.86h0Zm0-13h0Z"/></g></g></svg>