<svg xmlns="http://www.w3.org/2000/svg" viewBox="0 0 30.76 28.1"><defs><style>.cls-1{fill:#373d47;}</style></defs><title>Asset 52</title><g id="Layer_2" data-name="Layer 2"><g id="Layer_44" data-name="Layer 44"><path class="cls-1" d="M15.92,28.1a1.93,1.93,0,0,1-1.21-.43L6.4,21H2.84A2.86,2.86,0,0,1,0,18.1V10.35A2.86,2.86,0,0,1,2.84,7.48H6.39l8.28-7A1.92,1.92,0,0,1,16.74.18,1.94,1.94,0,0,1,17.87,2V26.14a2,2,0,0,1-2,2ZM2.84,9.58a.76.76,0,0,0-.74.77V18.1a.76.76,0,0,0,.74.77H6.46a1.94,1.94,0,0,1,1.22.43l8.09,6.53V2.28L7.7,9.12a1.94,1.94,0,0,1-1.25.46ZM6.46,21h0Z"/><path class="cls-1" d="M22.64,20.57a1,1,0,0,1-.78-1.75,7.89,7.89,0,0,0,1.66-4.77,8,8,0,0,0-1.68-4.79A1.05,1.05,0,0,1,23.43,7.9a10.15,10.15,0,0,1,2.18,6.15,9.89,9.89,0,0,1-2.19,6.17A1,1,0,0,1,22.64,20.57Z"/><path class="cls-1" d="M26.82,24.3A1,1,0,0,1,26,22.53s2.61-2.92,2.61-8.48c0-6-2.51-8.39-2.54-8.41a1,1,0,0,1,1.39-1.57c.13.12,3.25,2.95,3.25,10,0,6.44-3,9.78-3.17,9.92A1,1,0,0,1,26.82,24.3Z"/></g></g></svg>