<svg xmlns="http://www.w3.org/2000/svg" viewBox="0 0 131.16 38"><defs><style>.cls-1{fill:#373d47;}</style></defs><title>Asset 64</title><g id="Layer_2" data-name="Layer 2"><g id="Layer_57" data-name="Layer 57"><rect class="cls-1" y="10" width="5" height="18" rx="2.37" ry="2.37"/><rect class="cls-1" x="10.51" y="4" width="5" height="30" rx="2.5" ry="2.5"/><rect class="cls-1" x="21.03" y="8" width="5" height="22" rx="2.5" ry="2.5"/><rect class="cls-1" x="31.54" y="1" width="5" height="36" rx="2.5" ry="2.5"/><rect class="cls-1" x="42.05" y="4" width="5" height="30" rx="2.42" ry="2.42"/><rect class="cls-1" x="52.57" y="8" width="5" height="22" rx="2.5" ry="2.5"/><rect class="cls-1" x="63.08" y="10" width="5" height="18" rx="2.37" ry="2.37"/><rect class="cls-1" x="73.59" width="5" height="38" rx="2.5" ry="2.5"/><rect class="cls-1" x="84.1" y="9" width="5" height="20" rx="2.5" ry="2.5"/><rect class="cls-1" x="94.62" y="7" width="5" height="24" rx="2.5" ry="2.5"/><rect class="cls-1" x="105.13" y="6" width="5" height="26" rx="2.5" ry="2.5"/><rect class="cls-1" x="115.64" y="9" width="5" height="20" rx="2.5" ry="2.5"/><rect class="cls-1" x="126.16" y="10" width="5" height="18" rx="2.37" ry="2.37"/></g></g></svg>